<?xml version="1.0"?>
<svg width="133" height="165" xmlns="http://www.w3.org/2000/svg"  version="1.1" xml:space="preserve">
 <g class="layer">
  <title>Layer 1</title>
  <g id="svg_1">
   <path d="m116.08,65.77c-0.04,3.71 -0.56,7.36 -1.56,10.92c-0.64,2.29 -1.39,4.55 -2.26,6.76c-1.53,3.88 -3.63,7.47 -6.17,10.78c-1.81,2.37 -3.82,4.56 -6.03,6.58c-3.42,3.13 -7.18,5.76 -11.32,7.82c-4.27,2.13 -8.75,3.69 -13.47,4.44c-1.65,0.26 -3.32,0.43 -4.98,0.63c-0.56,0.07 -1.13,0.1 -1.82,0.11c-1.45,-0.02 -2.79,0 -4.11,0.03c-1.98,-0.2 -3.98,-0.27 -5.92,-0.63c-2.63,-0.5 -5.27,-1.06 -7.8,-1.9c-2.54,-0.84 -5.01,-1.95 -7.4,-3.15c-2.72,-1.36 -5.31,-2.99 -7.61,-5.02c-1.97,-1.73 -4.02,-3.41 -5.78,-5.34c-1.85,-2.03 -3.48,-4.28 -5.04,-6.55c-1.2,-1.75 -2.25,-3.63 -3.17,-5.54c-1.85,-3.81 -3.27,-7.78 -3.94,-11.98c-0.32,-2.03 -0.55,-4.08 -0.79,-6.13c-0.09,-0.72 -0.11,-1.45 -0.11,-2.3c0.17,-1.83 0.24,-3.53 0.41,-5.22c0.59,-5.68 2.27,-11.06 4.8,-16.15c2.63,-5.28 6.1,-9.96 10.42,-14.01c3.3,-3.09 6.92,-5.71 10.91,-7.83c6.24,-3.32 12.89,-5.21 19.92,-5.66c5.61,-0.35 11.17,0.17 16.6,1.72c5.12,1.46 9.91,3.63 14.32,6.61c4.23,2.85 7.95,6.26 11.13,10.25c3.8,4.75 6.65,10.01 8.49,15.8c1.54,4.85 2.45,9.82 2.3,14.95m-95.91,-0.53c0.16,2.41 0.2,4.82 0.49,7.21c0.75,6.13 2.81,11.84 5.95,17.14c2.47,4.16 5.49,7.86 9.13,11.07c3.11,2.75 6.51,5.07 10.22,6.9c5.33,2.63 10.96,4.18 16.91,4.61c3.71,0.26 7.4,0.18 11.06,-0.41c5.09,-0.83 9.92,-2.46 14.47,-4.93c5.51,-2.97 10.23,-6.87 14.15,-11.74c3.82,-4.74 6.59,-10.04 8.33,-15.88c1.37,-4.61 1.99,-9.33 1.86,-14.28c0.09,-5.54 -0.79,-10.91 -2.6,-16.15c-6.56,-18.92 -25.07,-31.6 -45.05,-30.9c-7.01,0.25 -13.65,1.88 -19.85,5.16c-10.61,5.6 -18.03,14.04 -22.23,25.29c-2.02,5.4 -2.84,11 -2.83,16.91z" fill="#F3A703" id="svg_2"/>
   <path d="m116.13,65.74c0.09,-5.08 -0.82,-10.05 -2.36,-14.91c-1.84,-5.79 -4.7,-11.05 -8.49,-15.8c-3.19,-3.99 -6.91,-7.4 -11.13,-10.25c-4.41,-2.97 -9.2,-5.15 -14.32,-6.61c-5.44,-1.55 -10.99,-2.08 -16.6,-1.72c-7.03,0.44 -13.69,2.34 -19.92,5.66c-3.99,2.12 -7.61,4.74 -10.91,7.83c-4.32,4.05 -7.79,8.73 -10.42,14.01c-2.53,5.09 -4.21,10.47 -4.8,16.15c-0.18,1.69 -0.25,3.4 -0.4,5.15c-0.12,-2.56 0.06,-5.14 0.38,-7.74c0.52,-4.25 1.62,-8.33 3.23,-12.27c1.66,-4.07 3.78,-7.91 6.55,-11.33c1.59,-1.96 3.25,-3.87 5.04,-5.65c2.81,-2.8 5.99,-5.16 9.44,-7.14c3.29,-1.89 6.69,-3.54 10.35,-4.52c2.63,-0.71 5.29,-1.35 7.98,-1.71c2.73,-0.37 5.51,-0.5 8.26,-0.48c4.12,0.04 8.17,0.73 12.15,1.85c3.13,0.88 6.14,2.06 9.03,3.54c3.27,1.67 6.31,3.71 9.13,6.06c4.9,4.08 8.87,8.92 11.92,14.52c2.41,4.41 4.14,9.07 5.04,14.02c0.36,1.98 0.61,3.99 0.78,5.99c0.15,1.77 0.1,3.55 0.09,5.37z" fill="#F3B53E" id="svg_3"/>
   <path d="m90.36,158.82c0.18,0.31 0.35,0.56 0.59,0.92c0,-1.47 0,-2.81 0,-4.2c-0.43,0 -0.84,0 -1.31,0c0,-0.7 0,-1.34 0,-2.03c1.63,0 3.26,0 4.94,0c0,0.64 0,1.26 0,1.97c-0.42,0 -0.85,0 -1.36,0c0,3.09 0,6.09 0,9.18c-0.84,0 -1.59,0.03 -2.34,-0.02c-0.2,-0.01 -0.43,-0.24 -0.55,-0.44c-0.99,-1.66 -1.96,-3.33 -2.93,-4.99c-0.39,-0.66 -0.77,-1.32 -1.23,-2.14c0,1.93 0,3.69 0,5.5c0.39,0.02 0.76,0.04 1.18,0.07c0,0.62 0,1.18 0,1.81c-1.59,0 -3.18,0 -4.81,0c0,-0.58 0,-1.14 0,-1.8c0.41,0 0.84,0 1.32,0c0,-2.41 0,-4.73 0,-7.11c-0.42,0 -0.83,0 -1.31,0c0,-0.7 0,-1.34 0,-2.08c1.47,0 2.96,-0.01 4.45,0.02c0.16,0 0.34,0.27 0.45,0.45c0.98,1.61 1.94,3.22 2.92,4.88z" fill="#0087CC" id="svg_4"/>
   <path d="m21.28,156.76c0,0.33 0,0.59 0,0.9c0.95,0 1.85,0 2.8,0c0,-0.69 0,-1.37 0,-2.09c-0.26,-0.03 -0.54,-0.07 -0.86,-0.11c0,-0.64 0,-1.28 0,-1.96c1.7,0 3.37,0 5.1,0c0,0.64 0,1.28 0,1.98c-0.41,0.02 -0.82,0.04 -1.3,0.06c0,2.32 0,4.64 0,7.04c0.41,0.02 0.84,0.04 1.31,0.06c0,0.61 0,1.17 0,1.8c-1.67,0 -3.37,0 -5.11,0c0,-0.58 0,-1.16 0,-1.79c0.27,-0.03 0.53,-0.05 0.84,-0.08c0,-0.9 0,-1.8 0,-2.75c-0.9,0 -1.8,0 -2.74,0c0,0.91 0,1.79 0,2.73c0.27,0.03 0.54,0.07 0.86,0.11c0,0.59 0,1.18 0,1.81c-1.7,0 -3.38,0 -5.1,0c0,-0.59 0,-1.18 0,-1.82c0.42,-0.02 0.83,-0.04 1.3,-0.06c0,-2.32 0,-4.64 0,-7.05c-0.41,0 -0.85,0 -1.32,0c0,-0.71 0,-1.33 0,-2.01c1.68,0 3.37,0 5.11,0c0,0.64 0,1.27 0,1.95c-0.28,0.03 -0.53,0.05 -0.9,0.08c0,0.37 0,0.76 0,1.22z" fill="#0087CC" id="svg_5"/>
   <path d="m49.86,154.04c1.98,1.29 1.81,3.73 -0.41,5.46c0.51,0.96 0.95,1.99 1.58,2.88c0.2,0.28 0.9,0.22 1.43,0.32c0,0.53 0,1.12 0,1.79c-1.09,0 -2.16,0.02 -3.23,-0.02c-0.18,-0.01 -0.39,-0.27 -0.5,-0.47c-0.59,-1.12 -1.14,-2.26 -1.73,-3.39c-0.47,-0.9 -0.49,-0.9 -1.54,-0.81c0,0.9 0,1.81 0,2.77c0.43,0 0.84,0 1.31,0c0,0.64 0,1.23 0,1.92c-0.96,0 -1.92,0 -2.88,0c-0.94,0 -1.88,0 -2.85,0c0,-0.65 0,-1.21 0,-1.87c0.43,0 0.86,0 1.33,0c0,-2.41 0,-4.73 0,-7.11c-0.45,0 -0.86,0 -1.32,0c0,-0.7 0,-1.34 0,-1.9c2.65,0 5.28,-0.01 7.92,0.02c0.28,0 0.56,0.23 0.89,0.4m-1.77,2.78c0.04,-1.01 -0.72,-1.53 -2.64,-1.22c0,0.73 0,1.47 0,2.21c1.66,0.22 2.14,0.05 2.64,-0.99z" fill="#0087CC" id="svg_6"/>
   <path d="m81.34,162.4c-1.13,1.58 -2.67,2.2 -4.5,2.25c-1.33,0.04 -2.66,0.06 -3.86,-0.64c-1.76,-1.02 -2.7,-2.52 -2.82,-4.59c-0.12,-2.21 0.59,-4.01 2.49,-5.18c1.37,-0.84 2.91,-1.1 4.54,-0.85c1.22,0.19 2.35,0.5 3.32,1.31c2.08,1.74 2.48,5.3 0.83,7.69m-8.01,-2.92c0.05,0.28 0.08,0.56 0.17,0.83c0.46,1.38 1.08,2 2.61,2.28c0.92,0.17 2.11,-0.64 2.63,-1.68c0.61,-1.21 0.61,-2.46 0.08,-3.66c-0.41,-0.92 -1.11,-1.62 -2.2,-1.74c-1.14,-0.12 -2.12,0.28 -2.62,1.27c-0.39,0.77 -0.46,1.7 -0.67,2.7z" fill="#0087CC" id="svg_7"/>
   <path d="m31.72,164.19c-3.26,-1.71 -3.98,-5.21 -2.46,-8.05c0.85,-1.59 2.26,-2.37 4.02,-2.69c1.37,-0.25 2.69,-0.16 3.96,0.33c1.99,0.77 3.14,2.22 3.47,4.37c0.29,1.96 -0.23,3.63 -1.61,5.01c-0.99,0.98 -2.23,1.47 -3.63,1.5c-1.24,0.02 -2.5,0.12 -3.73,-0.46m3.76,-1.75c2.36,-0.76 2.48,-4.06 1.55,-5.53c-0.62,-0.98 -1.54,-1.58 -2.75,-1.38c-1.09,0.18 -1.88,0.81 -2.26,1.88c-0.37,1.05 -0.44,2.08 -0.03,3.16c0.55,1.48 1.87,2.27 3.5,1.88z" fill="#0087CC" id="svg_8"/>
   <path d="m108.34,153.46c2.49,0 4.9,0 7.36,0c0,1.22 0,2.38 0,3.59c-0.7,0 -1.37,0 -2.13,0c0,-0.48 0,-0.96 0,-1.49c-1.07,0 -2.06,0 -3.12,0c0,0.72 0,1.46 0,2.3c0.83,0 1.68,0 2.57,0c0,0.71 0,1.33 0,2.04c-0.83,0 -1.68,0 -2.58,0c0,0.94 0,1.78 0,2.67c1.01,0 1.99,0 3.07,0c0,-0.53 0,-1.06 0,-1.64c0.78,0 1.47,0 2.2,0c0,1.17 0,2.32 0,3.52c-3.16,0 -6.32,0 -9.53,0c0,-0.59 0,-1.17 0,-1.81c0.38,-0.02 0.74,-0.03 1.16,-0.05c0,-2.33 0,-4.65 0,-7.03c-0.38,-0.03 -0.76,-0.05 -1.17,-0.08c0,-0.66 0,-1.28 0,-2.01c0.7,0 1.39,0 2.17,0z" fill="#0087CC" id="svg_9"/>
   <path d="m69.08,155.79c-1.61,2.27 -3.21,4.49 -4.85,6.76c1.09,0 2.12,0 3.24,0c0,-0.62 0,-1.26 0,-1.95c0.73,0 1.36,0 2.04,0c0,1.28 0,2.53 0,3.84c-2.96,0 -5.91,0 -8.84,0c-0.56,-1.56 0.39,-2.6 1.2,-3.7c1.24,-1.7 2.46,-3.42 3.73,-5.2c-0.94,0 -1.77,0 -2.66,0c0,0.65 0,1.28 0,1.96c-0.7,0 -1.34,0 -2.02,0c0,-1.3 0,-2.61 0,-3.98c2.77,0 5.56,0 8.58,0c-0.13,0.74 -0.26,1.47 -0.41,2.26z" fill="#0087CC" id="svg_10"/>
   <path d="m95.77,153.46c3.25,0 6.43,0 9.67,0c0,1.51 0,2.99 0,4.52c-0.63,0 -1.27,0 -1.97,0c0,-0.8 0,-1.58 0,-2.41c-0.54,0 -1.02,0 -1.55,0c0,2.32 0,4.64 0,7.03c0.5,0 0.96,0 1.48,0c0,0.64 0,1.23 0,1.86c-2,0 -3.99,0 -6.04,0c0,-0.58 0,-1.16 0,-1.84c0.47,0 0.96,0 1.48,0c0,-2.39 0,-4.69 0,-7.05c-0.43,0 -0.86,0 -1.35,0c0,0.78 0,1.56 0,2.4c-0.7,0 -1.33,0 -2.07,0c0,-1.42 0,-2.85 0.01,-4.29c0,-0.07 0.17,-0.15 0.33,-0.22z" fill="#0087CC" id="svg_11"/>
   <path d="m58.33,153.46c0.44,0 0.8,0 1.22,0c0,0.69 0,1.33 0,2.03c-0.48,0 -0.94,0 -1.47,0c0,2.38 0,4.7 0,7.11c0.47,0 0.96,0 1.48,0c0,0.65 0,1.22 0,1.85c-2.05,0 -4.11,0 -6.21,0c0,-0.58 0,-1.16 0,-1.81c0.53,0 1.05,0 1.62,0c0,-2.38 0,-4.7 0,-7.11c-0.53,0 -1.06,0 -1.64,0c0,-0.71 0,-1.33 0,-2.07c1.63,0 3.28,0 4.99,0z" fill="#0087CC" id="svg_12"/>
   <path d="m43.99,143.05c1.01,0.05 1.94,0.08 2.87,0.16c0.98,0.08 1.41,0.79 1.64,1.62c0.2,0.71 -0.04,1.32 -0.6,1.8c-0.08,0.07 -0.14,0.15 -0.16,0.18c0.33,0.38 0.76,0.7 0.94,1.12c0.18,0.42 0.21,0.97 0.1,1.42c-0.28,1.18 -1.05,1.69 -2.32,1.74c-1.64,0.06 -3.27,0.15 -4.95,0.22c0,-0.6 0,-1.06 0,-1.58c0.26,-0.03 0.53,-0.07 0.85,-0.12c0,-1.63 0,-3.27 0,-4.96c-0.28,-0.02 -0.56,-0.04 -0.86,-0.07c0,-0.51 0,-0.97 0,-1.54c0.8,0 1.61,0 2.49,0m1.6,4.73c-0.3,0 -0.61,0 -0.92,0c0,0.68 0,1.27 0,1.87c0.74,0.01 1.55,0.21 1.81,-0.69c0.16,-0.56 -0.02,-1.09 -0.9,-1.18m-0.97,-2.73c0,0.36 0,0.72 0,1.11c0.69,0.06 1.35,0.2 1.62,-0.58c0.07,-0.22 -0.09,-0.68 -0.28,-0.79c-0.42,-0.24 -0.93,-0.41 -1.33,0.26z" fill="#0087CC" id="svg_13"/>
   <path d="m108.23,144.03c1.89,-1.66 5.8,-1.59 7.16,0.94c0.73,1.36 0.78,2.75 0.07,4.14c-0.72,1.41 -1.91,2.05 -3.43,2.12c-1.22,0.06 -2.41,0.04 -3.47,-0.78c-1.92,-1.49 -2.31,-4.54 -0.33,-6.43m4.77,1.24c-1.17,-0.99 -2.57,-0.91 -3.27,0.29c-0.53,0.91 -0.62,1.94 -0.09,2.94c0.4,0.75 0.99,1.2 1.85,1.16c0.88,-0.04 1.52,-0.54 1.85,-1.32c0.43,-1.01 0.26,-2.02 -0.34,-3.07z" fill="#0087CC" id="svg_14"/>
   <path d="m58.55,149.14c0,-0.56 -0.22,-0.77 -0.73,-0.73c-0.42,0.03 -0.84,0.01 -1.28,0.01c-0.14,0.41 -0.26,0.79 -0.4,1.21c0.32,0.03 0.59,0.06 0.91,0.1c0,0.48 0,0.94 0,1.47c-1.15,0 -2.31,0 -3.53,0c0,-0.46 0,-0.94 0,-1.49c0.89,0.15 1.09,-0.37 1.24,-1.13c0.23,-1.1 0.63,-2.17 0.95,-3.25c0.06,-0.19 0.1,-0.39 0.16,-0.63c-0.35,-0.04 -0.62,-0.07 -0.94,-0.11c0,-0.49 0,-0.97 0,-1.49c1.76,0 3.48,0 5.26,0c0,0.48 0,0.96 0,1.51c-0.27,0.02 -0.54,0.04 -0.88,0.07c0.49,1.57 0.94,3.11 1.48,4.62c0.09,0.25 0.57,0.37 0.99,0.62c0,0.29 0,0.78 0,1.31c-1.34,0 -2.66,0 -4.02,0c0,-0.5 0,-0.96 0,-1.37c0.14,-0.44 1.06,0.27 0.8,-0.7m-0.74,-2.92c-0.1,-0.29 -0.21,-0.57 -0.34,-0.94c-0.19,0.65 -0.36,1.22 -0.55,1.84c0.4,0 0.73,0 1.08,0c-0.05,-0.28 -0.09,-0.53 -0.18,-0.9z" fill="#0087CC" id="svg_15"/>
   <path d="m83.25,143.05c0.39,0 0.7,0 1.06,0c0,0.9 0,1.75 0,2.64c-0.48,0 -0.94,0 -1.47,0c-0.03,-0.31 -0.06,-0.64 -0.09,-1.01c-0.75,0 -1.5,0 -2.29,0c0,0.49 0,0.95 0,1.5c0.63,0 1.27,0 1.96,0c0,0.57 0,1.05 0,1.59c-0.65,0 -1.27,0 -1.95,0c0,0.64 0,1.23 0,1.86c0.75,0 1.5,0 2.28,0c0.02,-0.34 0.03,-0.65 0.05,-1.01c0.5,0 0.98,0 1.51,0c0,0.84 0,1.67 0,2.57c-2.31,0 -4.63,0 -7,0c0,-0.47 0,-0.95 0,-1.47c0.27,-0.02 0.52,-0.05 0.84,-0.08c0,-1.63 0,-3.27 0,-4.97c-0.26,-0.02 -0.53,-0.05 -0.85,-0.08c0,-0.49 0,-0.95 0,-1.54c1.94,0 3.9,0 5.94,0z" fill="#0087CC" id="svg_16"/>
   <path d="m22.21,143.05c0.48,0.14 0.89,0.29 1.29,0.43c-0.02,-0.06 -0.03,-0.12 -0.05,-0.19c0.48,-0.11 0.97,-0.22 1.55,-0.35c0,1.09 0,2.04 0,3.05c-0.73,0.09 -1.42,0.25 -1.86,-0.72c-0.27,-0.6 -0.96,-0.88 -1.64,-0.79c-0.88,0.13 -1.6,0.59 -1.91,1.47c-0.29,0.82 -0.29,1.65 0.11,2.48c0.38,0.79 1.02,1.17 1.83,1.22c0.8,0.05 1.36,-0.45 1.79,-1.07c0.18,-0.27 0.28,-0.6 0.46,-1.02c0.49,0.23 1,0.44 1.47,0.72c0.1,0.06 0.12,0.38 0.06,0.55c-0.43,1.37 -1.9,2.39 -3.38,2.41c-1.15,0.02 -2.28,0.02 -3.29,-0.65c-0.85,-0.56 -1.33,-1.35 -1.52,-2.32c-0.31,-1.54 -0.21,-3.06 1.01,-4.18c1.1,-1.01 2.47,-1.47 4.07,-1.06z" fill="#0087CC" id="svg_17"/>
   <path d="m98.09,148.23c-0.67,-2.2 0.71,-4.82 3.13,-5.22c1.17,-0.19 2.19,-0.01 3.2,0.21c0.48,-0.08 0.97,-0.15 1.52,-0.24c0,1.07 0,2 0,3c-0.69,0.06 -1.32,0.31 -1.77,-0.65c-0.46,-1 -2.04,-1.09 -2.9,-0.32c-1.29,1.15 -1.25,3.37 0.16,4.3c1.25,0.82 2.38,0.16 2.98,-1.01c0.1,-0.2 0.16,-0.43 0.27,-0.74c0.59,0.28 1.16,0.55 1.71,0.82c-0.69,3.58 -6.02,3.65 -7.58,1.44c-0.32,-0.45 -0.48,-1.01 -0.72,-1.58z" fill="#0087CC" id="svg_18"/>
   <path d="m37.64,151.25c-1.01,0.01 -2,0.11 -2.65,-0.75c-0.3,-0.41 -0.57,-0.94 -0.59,-1.44c-0.08,-1.44 -0.03,-2.88 -0.03,-4.38c-0.31,-0.04 -0.58,-0.07 -0.9,-0.11c0,-0.49 0,-0.97 0,-1.49c1.28,0 2.53,0 3.84,0c0,0.49 0,0.97 0,1.51c-0.22,0.02 -0.44,0.04 -0.73,0.07c0,1.42 0,2.81 0,4.19c0,0.62 0.42,0.92 0.93,0.93c0.5,0 0.95,-0.28 0.96,-0.9c0.01,-1.39 0,-2.78 0,-4.22c-0.27,-0.03 -0.49,-0.05 -0.75,-0.07c0,-0.5 0,-0.96 0,-1.49c1.11,0 2.22,0 3.38,0c0,0.48 0,0.96 0,1.49c-0.33,0.02 -0.64,0.03 -1.06,0.06c0,1.39 -0.06,2.77 0.02,4.15c0.09,1.67 -0.87,2.29 -2.42,2.45z" fill="#0087CC" id="svg_19"/>
   <path d="m66.61,149.59c0.33,0.07 0.62,0.09 0.97,0.11c0,0.48 0,0.96 0,1.5c-1.46,0 -2.94,0 -4.46,0c0,-0.49 0,-0.97 0,-1.5c0.34,-0.02 0.65,-0.03 1.01,-0.05c0,-1.65 0,-3.29 0,-4.98c-0.28,0 -0.55,0 -0.88,0c0,0.54 0,1.06 0,1.63c-0.54,0 -1.02,0 -1.55,0c0,-1.06 0,-2.12 0,-3.22c2.44,0 4.84,0 7.31,0c0,1.06 0,2.12 0,3.23c-0.48,0 -0.96,0 -1.5,0c0,-0.54 0,-1.06 0,-1.63c-0.33,0 -0.6,0 -0.94,0c0,1.61 0,3.23 0.05,4.9z" fill="#0087CC" id="svg_20"/>
   <path d="m91.33,146.36c-0.21,-0.16 -0.45,-0.3 -0.48,-0.48c-0.06,-0.38 -0.02,-0.77 -0.02,-1.21c-0.33,0 -0.6,0 -0.91,0c0,1.64 0,3.26 0,4.95c0.32,0.03 0.65,0.06 1.02,0.09c0,0.49 0,0.97 0,1.5c-1.48,0 -2.94,0 -4.46,0c0,-0.47 0,-0.95 0,-1.49c0.31,-0.03 0.64,-0.06 1,-0.09c0,-1.64 0,-3.26 0,-4.97c-0.26,-0.01 -0.53,-0.03 -0.89,-0.04c0,0.58 0,1.12 0,1.7c-0.54,0 -1.01,0 -1.53,0c0,-1.04 0,-2.1 0,-3.22c2.41,0 4.84,0 7.31,0c0,1.05 0,2.09 0,3.26c-0.31,0 -0.64,0 -1.04,0z" fill="#0087CC" id="svg_21"/>
   <path d="m76.88,126.65c-0.52,0 -0.96,0 -1.41,0c-1.13,0 -2.04,-0.59 -2.3,-1.48c-0.35,-1.21 -0.17,-2.13 0.94,-2.78c0.06,-0.03 0.1,-0.09 0.15,-0.14c-0.91,-0.72 -1.23,-1.85 -0.82,-2.76c0.46,-1.02 2.03,-1.53 3.08,-1.31c1.82,0.38 2.57,1.54 1.99,3.03c-0.15,0.38 -0.45,0.71 -0.71,1.12c1.17,0.52 1.19,1.65 1,2.73c-0.16,0.95 -0.92,1.44 -1.93,1.6m-0.43,-1.47c0.13,-0.13 0.28,-0.24 0.38,-0.39c0.35,-0.53 0.11,-1.44 -0.48,-1.75c-0.55,-0.28 -0.94,0.01 -1.19,0.45c-0.53,0.95 0.02,1.75 1.29,1.69m-1.32,-4.82c0.05,0.29 0.03,0.62 0.16,0.87c0.29,0.53 1.13,0.5 1.38,-0.05c0.23,-0.52 0.31,-1.09 -0.27,-1.44c-0.59,-0.35 -0.94,0.01 -1.27,0.62z" fill="#0087CC" id="svg_22"/>
   <path d="m74.27,151.25c-1.6,0 -3.12,0 -4.68,0c0,-0.54 0,-1.02 0,-1.55c0.33,-0.02 0.64,-0.03 1,-0.05c0,-1.65 0,-3.29 0,-4.99c-0.33,-0.02 -0.65,-0.04 -1.01,-0.06c0,-0.51 0,-0.98 0,-1.49c1.49,0 2.97,0 4.49,0c0,0.47 0,0.93 0,1.47c-0.3,0.03 -0.63,0.06 -1.01,0.1c0,1.64 0,3.28 0,4.96c0.69,0 1.36,0 2.12,0c0,-0.78 0,-1.58 0,-2.43c0.57,0 1.05,0 1.57,0c0,1.33 0,2.63 0,4.05c-0.8,0 -1.6,0 -2.48,0z" fill="#0087CC" id="svg_23"/>
   <path d="m31.73,147.17c0.47,-0.01 0.86,-0.01 1.32,-0.01c0,1.34 0,2.67 0,4.1c-1.19,0 -2.38,0 -3.58,0c-1.18,0 -2.35,0 -3.57,0c0,-0.53 0,-1 0,-1.54c0.37,-0.02 0.74,-0.04 1.17,-0.06c0,-1.67 0,-3.3 0,-4.99c-0.38,-0.02 -0.74,-0.03 -1.16,-0.05c0,-0.49 0,-0.98 0,-1.51c1.48,0 2.96,0 4.48,0c0,0.5 0,0.96 0,1.48c-0.33,0.03 -0.66,0.06 -1.02,0.1c0,1.64 0,3.26 0,4.94c0.68,0 1.37,0 2.09,0c0.07,-0.8 0.13,-1.62 0.27,-2.44z" fill="#0087CC" id="svg_24"/>
   <path d="m60.08,124.75c0.41,-0.65 1.23,-0.62 1.63,-0.08c0.18,0.24 0.53,0.51 0.79,0.51c0.25,-0.01 0.56,-0.32 0.71,-0.57c0.2,-0.36 0.27,-0.79 0.44,-1.36c-1.28,0.56 -2.3,0.59 -3.16,-0.36c-0.6,-0.66 -0.8,-2.38 -0.38,-3.26c0.44,-0.91 1.62,-1.59 2.61,-1.5c1.3,0.12 2.38,0.84 2.5,2.03c0.15,1.48 0.12,3 0,4.49c-0.08,1 -0.86,1.76 -1.8,1.93c-0.97,0.17 -2.14,0.42 -2.87,-0.66c-0.22,-0.32 -0.32,-0.73 -0.47,-1.17m3.47,-3.66c-0.05,-0.17 -0.11,-0.34 -0.16,-0.51c-0.16,-0.53 -0.41,-1.03 -1.07,-0.85c-0.61,0.17 -0.62,0.76 -0.65,1.27c-0.01,0.17 0.04,0.39 0.16,0.5c0.27,0.25 0.59,0.63 0.9,0.63c0.46,0 1,-0.2 0.82,-1.04z" fill="#0087CC" id="svg_25"/>
   <path d="m71.91,120.22c0.17,1.66 -1.06,2.29 -2.04,3.12c-0.59,0.5 -1.09,1.12 -1.63,1.68c0.05,0.06 0.11,0.11 0.16,0.17c0.67,0 1.34,0 2.06,0c0.02,-0.34 0.04,-0.64 0.06,-1.01c0.48,0 0.96,0 1.4,0c0,0.78 0,1.58 0,2.41c-1.82,0 -3.56,0 -5.34,0c-0.14,-1.3 0.16,-2.43 1.08,-3.35c0.57,-0.58 1.16,-1.14 1.72,-1.73c0.2,-0.22 0.46,-0.53 0.44,-0.78c-0.03,-0.38 -0.19,-0.93 -0.47,-1.07c-0.49,-0.24 -0.74,0.26 -0.9,0.68c-0.11,0.28 -0.16,0.59 -0.24,0.91c-0.46,0 -0.93,0 -1.39,0c-0.39,-1.69 0.33,-2.76 2.09,-3.11c1.35,-0.27 2.76,0.67 3,2.08z" fill="#0087CC" id="svg_26"/>
   <path d="m96.35,148.86c0.01,0.3 0.03,0.53 0.04,0.79c0.35,0.02 0.66,0.03 1.01,0.05c0,0.51 0,0.99 0,1.51c-1.49,0 -2.95,0 -4.47,0c0,-0.48 0,-0.96 0,-1.5c0.32,-0.02 0.65,-0.04 1.01,-0.06c0,-1.66 0,-3.28 0,-4.96c-0.32,-0.03 -0.65,-0.06 -1.02,-0.09c0,-0.5 0,-0.98 0,-1.5c1.49,0 2.95,0 4.47,0c0,0.49 0,0.97 0,1.5c-0.31,0.02 -0.61,0.04 -1.05,0.07c0,1.37 0,2.74 0,4.2z" fill="#0087CC" id="svg_27"/>
   <path d="m97.31,117.97c2.12,0.13 3.91,0.85 5.37,2.31c-1.87,2.64 -7.17,2.44 -9.13,-0.82c0.97,-1.14 2.33,-1.31 3.76,-1.49z" fill="#0087CC" id="svg_28"/>
   <path d="m36.99,118.14c0.85,0.36 1.64,0.72 2.52,1.11c-0.94,1.62 -2.31,2.51 -3.93,2.77c-1.97,0.32 -3.87,-0.03 -5.38,-1.71c1.97,-1.68 4.09,-2.71 6.79,-2.17z" fill="#0087CC" id="svg_29"/>
   <path d="m105.58,117.65c-2.12,0.14 -3.86,-0.49 -5.29,-1.97c1.67,-2.78 7,-2.44 9,-0.25c-0.87,1.3 -2.18,1.87 -3.71,2.22z" fill="#0087CC" id="svg_30"/>
   <path d="m25.55,117.03c-0.7,-0.49 -1.33,-0.96 -1.97,-1.44c1.54,-2.06 6.93,-2.95 9.03,-0.03c-1.17,1.82 -4.68,2.84 -7.07,1.47z" fill="#0087CC" id="svg_31"/>
   <path d="m108.47,109.08c1.73,-0.75 3.46,-0.79 5.19,-0.24c0.56,0.18 1.07,0.53 1.61,0.81c-0.33,0.45 -0.59,0.97 -0.99,1.35c-2.2,2.07 -5.82,1.84 -7.94,-0.18c0.71,-0.57 1.4,-1.13 2.14,-1.72z" fill="#0087CC" id="svg_32"/>
   <path d="m20.78,112.2c-1.44,-0.47 -2.52,-1.26 -3.14,-2.62c2.88,-1.76 7.1,-1.49 8.88,1.37c-1.68,1.38 -3.57,1.79 -5.73,1.25z" fill="#0087CC" id="svg_33"/>
   <path d="m112.17,105.1c1.59,-2.59 5.27,-3.29 8.35,-1.97c-0.66,1.8 -1.97,2.85 -3.78,3.3c-1.54,0.38 -3.01,0.06 -4.41,-0.64c-0.35,-0.17 -0.36,-0.35 -0.15,-0.69z" fill="#0087CC" id="svg_34"/>
   <path d="m17.31,102.67c1.66,0.44 2.91,1.31 3.65,2.83c-3.2,2.28 -7.71,0.68 -8.49,-2.42c1.55,-0.66 3.14,-0.73 4.84,-0.41z" fill="#0087CC" id="svg_35"/>
   <path d="m120.77,99.99c-1.41,0.4 -2.64,0 -3.88,-0.45c0.76,-3.28 5.35,-4.55 7.99,-3.41c-0.59,2.09 -1.94,3.37 -4.12,3.86z" fill="#0087CC" id="svg_36"/>
   <path d="m11.25,95.77c1.24,0.25 2.39,0.58 3.27,1.41c0.57,0.54 1.02,1.22 1.46,1.88c0.3,0.44 -0.14,0.62 -0.43,0.72c-3.11,1.03 -6.47,-0.21 -7.52,-3.63c1,-0.52 2.08,-0.41 3.22,-0.38z" fill="#0087CC" id="svg_37"/>
   <path d="m92.88,114.53c0.41,-1.69 1.22,-3 2.76,-3.8c0.56,-0.29 0.84,-0.13 0.99,0.39c0.51,1.74 0.59,3.46 -0.35,5.1c-0.62,1.08 -1.61,1.74 -2.74,2.18c-0.16,0.06 -0.61,-0.16 -0.61,-0.26c-0.05,-1.18 -0.04,-2.37 -0.05,-3.62z" fill="#0087CC" id="svg_38"/>
   <path d="m38.51,111.62c1.73,1.67 1.9,3.74 1.6,5.88c-0.16,1.12 -0.26,1.09 -1.32,0.63c-2.19,-0.95 -3.19,-3.61 -2.74,-5.71c0.09,-0.45 0.28,-0.88 0.35,-1.33c0.09,-0.57 0.35,-0.66 0.8,-0.38c0.43,0.28 0.85,0.58 1.32,0.91z" fill="#0087CC" id="svg_39"/>
   <path d="m100.7,114.31c-0.38,0.16 -0.7,0.29 -1.03,0.42c-1.42,-3.49 -0.52,-7.18 2.27,-8.24c1.54,2.51 1.51,5.84 -1.24,7.82z" fill="#0087CC" id="svg_40"/>
   <path d="m11.55,91.44c0.2,0.48 0.37,0.91 0.53,1.34c-2.49,1.23 -7.04,-0.15 -7.49,-4.2c2.63,-0.52 5.71,0.48 6.96,2.85z" fill="#0087CC" id="svg_41"/>
   <path d="m121.78,90.88c0.83,-1.26 2.05,-1.9 3.39,-2.21c1,-0.23 2.06,-0.18 3.2,-0.26c-0.12,1.23 -0.52,2.19 -1.27,2.99c-1.58,1.67 -3.54,2.13 -5.73,1.63c-0.17,-0.04 -0.42,-0.45 -0.37,-0.6c0.19,-0.52 0.49,-1 0.79,-1.54z" fill="#0087CC" id="svg_42"/>
   <path d="m30.15,108.59c0.26,-0.74 0.5,-1.41 0.73,-2.08c2.41,0.68 3.97,3.97 2.45,8.16c-0.91,-0.05 -1.56,-0.59 -2.1,-1.24c-1.16,-1.39 -1.54,-3 -1.08,-4.84z" fill="#0087CC" id="svg_43"/>
   <path d="m2.46,82.52c-0.18,-0.64 -0.32,-1.24 -0.46,-1.84c2.88,-0.21 5.86,1.19 6.78,4.22c0.24,0.8 0.04,1.04 -0.8,1.05c-2.17,0.03 -3.93,-0.76 -5.14,-2.61c-0.15,-0.23 -0.23,-0.51 -0.37,-0.82z" fill="#0087CC" id="svg_44"/>
   <path d="m128.62,84.97c-1.22,0.67 -2.46,1.04 -3.82,1c-0.65,-0.02 -0.78,-0.33 -0.66,-0.84c0.6,-2.48 2.58,-3.96 5.13,-4.38c0.5,-0.08 1.01,-0.13 1.59,-0.21c0.07,1.94 -0.88,3.26 -2.24,4.42z" fill="#0087CC" id="svg_45"/>
   <path d="m106.63,109.66c-0.93,0.56 -1.04,0.53 -1.4,-0.43c-0.64,-1.72 -0.83,-3.51 -0.16,-5.23c0.29,-0.76 0.99,-1.37 1.55,-2c0.07,-0.08 0.58,0.06 0.68,0.22c1.25,2 1.68,4.08 0.41,6.24c-0.26,0.44 -0.68,0.78 -1.07,1.2z" fill="#0087CC" id="svg_46"/>
   <path d="m24.63,107c-0.25,-1.66 0.01,-3.16 0.87,-4.55c0.42,-0.68 0.56,-0.7 1.15,-0.18c1.92,1.72 1.85,3.86 1.32,6.1c-0.01,0.05 -0.04,0.09 -0.06,0.14c-0.57,1.65 -0.52,2.32 -2.23,0.49c-0.48,-0.52 -0.69,-1.29 -1.06,-2z" fill="#0087CC" id="svg_47"/>
   <path d="m20.92,97.13c0.21,-0.24 0.38,-0.44 0.59,-0.69c1.17,0.88 1.68,2.04 1.8,3.34c0.16,1.66 -0.29,3.2 -1.22,4.61c-0.38,0.57 -0.62,0.43 -1,0.08c-1.52,-1.41 -1.99,-3.73 -1.07,-5.75c0.24,-0.54 0.56,-1.04 0.89,-1.6z" fill="#0087CC" id="svg_48"/>
   <path d="m113.04,102.75c-0.47,0.66 -0.89,1.28 -1.36,1.85c-0.23,0.28 -0.54,0.29 -0.75,-0.06c-1.12,-1.88 -1.79,-3.86 -0.99,-6.03c0.28,-0.74 0.82,-1.39 1.24,-2.09c1.88,1.45 2.56,3.87 1.85,6.33z" fill="#0087CC" id="svg_49"/>
   <path d="m6.53,78.32c-2.61,0.22 -4.48,-0.86 -5.53,-3.17c-0.34,-0.74 -0.35,-1.63 -0.51,-2.47c2.81,-0.37 6.42,2.45 6.04,5.64z" fill="#0087CC" id="svg_50"/>
   <path d="m126.34,78.2c-0.04,-2.64 2.02,-4.78 4.63,-5.48c0.39,-0.11 0.81,-0.14 1.21,-0.2c0.84,3.15 -2.64,6.54 -5.84,5.69z" fill="#0087CC" id="svg_51"/>
   <path d="m57.42,125.21c0.23,0.02 0.39,0.02 0.54,0.03c0.05,0 0.09,0.03 0.18,0.07c0,0.4 0,0.81 0,1.28c-1.31,0 -2.63,0 -4.01,0c0,-0.42 0,-0.85 0,-1.33c0.32,-0.02 0.63,-0.04 0.99,-0.06c0,-1.79 0,-3.59 0,-5.44c-0.31,-0.03 -0.63,-0.06 -1,-0.09c0,-0.43 0,-0.84 0,-1.31c0.99,0 1.99,0 3.11,0c0,1.28 -0.01,2.58 0,3.89c0.01,0.99 0.07,1.97 0.18,2.97z" fill="#0087CC" id="svg_52"/>
   <path d="m117.5,94.32c0.47,1.85 -0.16,3.29 -1.35,4.58c-2.38,-1.67 -3.3,-6.3 -0.96,-8.17c1.13,0.94 2.02,2.03 2.31,3.6z" fill="#0087CC" id="svg_53"/>
   <path d="m18.1,91.06c1.35,1.69 1.23,3.51 0.54,5.31c-0.36,0.93 -1.03,1.75 -1.57,2.63c-2.31,-1.79 -2.61,-5.61 0.67,-8.28c0.11,0.1 0.22,0.2 0.36,0.34z" fill="#0087CC" id="svg_54"/>
   <path d="m5.35,70.44c-0.09,0.17 -0.19,0.36 -0.26,0.35c-2.16,-0.34 -4.07,-1.34 -4.84,-3.75c-0.19,-0.6 -0.23,-1.27 -0.25,-1.91c-0.02,-0.56 0.1,-0.91 0.88,-0.67c2.25,0.69 3.77,2.06 4.4,4.34c0.14,0.49 0.05,1.04 0.07,1.63z" fill="#0087CC" id="svg_55"/>
   <path d="m130.75,64.98c0.44,-0.17 0.81,-0.34 1.2,-0.47c0.82,-0.27 0.97,-0.17 1,0.67c0.1,2.79 -1.79,5.06 -4.55,5.48c-0.23,0.03 -0.44,0.11 -0.67,0.16c-0.62,-2.11 0.6,-4.48 3.02,-5.84z" fill="#0087CC" id="svg_56"/>
   <path d="m117.2,86.52c0.29,-0.72 0.55,-1.37 0.81,-2.03c2.69,1.2 4.49,5.14 2.03,7.96c-1.89,-1.51 -2.99,-3.38 -2.84,-5.93z" fill="#0087CC" id="svg_57"/>
   <path d="m14.7,90.56c-0.59,0.66 -1.13,1.28 -1.68,1.91c-2.24,-2.2 -1.3,-5.77 0.96,-7.44c0.88,-0.65 1.06,-0.54 1.47,0.56c0.67,1.79 0.15,3.38 -0.75,4.98z" fill="#0087CC" id="svg_58"/>
   <path d="m132.25,56.22c0.83,2.34 -0.12,4.75 -2.17,6c-0.63,0.38 -1.34,0.62 -2.07,0.95c-0.53,-1.39 -0.31,-2.63 0.25,-3.82c0.7,-1.49 1.89,-2.5 3.41,-3.11c0.16,-0.06 0.35,-0.05 0.57,-0.02z" fill="#0087CC" id="svg_59"/>
   <path d="m12.48,77.98c1.07,1.33 1.04,3.47 -0.18,5.16c-0.55,0.76 -1.32,1.37 -2,2.04c-0.38,0.37 -0.65,0.25 -0.86,-0.21c-1.06,-2.23 -0.32,-4.6 1.55,-6.09c0.43,-0.35 0.96,-0.58 1.5,-0.9z" fill="#0087CC" id="svg_60"/>
   <path d="m2.8,62.19c-2.09,-1.34 -2.86,-3.7 -2.08,-6.01c2.65,0.39 5.3,3.78 4.22,6.96c-0.7,-0.3 -1.4,-0.6 -2.14,-0.94z" fill="#0087CC" id="svg_61"/>
   <path d="m119.86,81.33c-0.38,-1.26 -0.06,-2.34 0.47,-3.42c1.75,0.83 3.05,1.95 3.5,3.87c0.26,1.13 0.18,2.2 -0.34,3.23c-0.21,0.42 -0.45,0.47 -0.84,0.19c-1.35,-0.96 -2.31,-2.2 -2.79,-3.87z" fill="#0087CC" id="svg_62"/>
   <path d="m126.96,52.45c0.5,-1.86 1.49,-3.29 3.12,-4.23c0.11,-0.06 0.22,-0.13 0.34,-0.18c0.07,-0.03 0.14,-0.05 0.21,-0.08c1.33,2.16 0.67,6.02 -3.24,7.4c-0.56,-0.88 -0.41,-1.87 -0.42,-2.91z" fill="#0087CC" id="svg_63"/>
   <path d="m2.71,53.27c-1.25,-1.71 -1.26,-3.47 -0.46,-5.31c2.99,1.21 4.61,4.68 3.32,7.41c-1.07,-0.51 -2.17,-0.97 -2.86,-2.1z" fill="#0087CC" id="svg_64"/>
   <path d="m8.66,72.55c0.87,-0.53 1.68,-1.04 2.52,-1.57c1.31,3.03 -0.77,6.03 -3.57,7.2c-0.97,-1.22 -0.77,-4.05 1.05,-5.63z" fill="#0087CC" id="svg_65"/>
   <path d="m123.45,77.01c-1.17,-1 -1.94,-2.19 -2.07,-3.67c-0.06,-0.7 0.11,-1.43 0.18,-2.18c3.72,0.92 5.22,4.39 3.75,7.1c-0.61,-0.41 -1.21,-0.81 -1.86,-1.25z" fill="#0087CC" id="svg_66"/>
   <path d="m127.78,46.24c-0.67,0.56 -1.3,1.09 -2,1.67c-0.9,-1.63 -0.95,-3.17 -0.3,-4.72c0.45,-1.08 1.07,-2.03 2.07,-2.73c0.45,-0.31 0.64,-0.31 0.88,0.18c0.95,1.98 0.72,3.83 -0.64,5.6z" fill="#0087CC" id="svg_67"/>
   <path d="m7.87,44.54c0.06,1.81 -0.09,2.2 -0.67,3.18c-2.51,-0.88 -4.1,-4.32 -2.76,-6.99c0.25,-0.5 0.44,-0.66 0.98,-0.25c1.35,1.02 2.09,2.37 2.44,4.05z" fill="#0087CC" id="svg_68"/>
   <path d="m122.08,64.64c0.13,-0.15 0.25,-0.32 0.36,-0.31c2.53,0.26 5.47,2.86 4.27,6.29c-2.12,-0.35 -5.06,-2.52 -4.63,-5.99z" fill="#0087CC" id="svg_69"/>
   <path d="m6.3,67.39c0.94,-1.87 2.44,-2.82 4.42,-3.12c0.85,2.62 -1.19,5.55 -4.48,6.38c-0.36,-1.08 -0.4,-2.14 0.06,-3.26z" fill="#0087CC" id="svg_70"/>
   <path d="m122.22,36.66c0.28,-1.41 0.87,-2.58 1.83,-3.57c0.39,-0.4 0.69,-0.33 0.94,0.08c1.49,2.44 0.92,5.28 -1.36,7c-0.39,0.3 -0.54,0.2 -0.77,-0.15c-0.68,-1.01 -0.69,-2.14 -0.65,-3.36z" fill="#0087CC" id="svg_71"/>
   <path d="m7.09,36.1c0.07,-1.11 0.3,-2.09 0.93,-2.97c0.28,-0.39 0.47,-0.41 0.8,-0.11c1.8,1.67 2.43,4.23 1.53,6.53c-0.33,0.84 -0.55,0.89 -1.27,0.38c-1.3,-0.92 -1.76,-2.28 -1.98,-3.84z" fill="#0087CC" id="svg_72"/>
   <path d="m10.88,59.44c-0.63,1.74 -2.53,3.3 -4.94,3.62c-0.65,-2.55 0.94,-4.59 2.97,-5.32c0.5,-0.18 1.06,-0.19 1.56,-0.38c0.67,-0.25 0.75,0.12 0.7,0.6c-0.05,0.48 -0.19,0.95 -0.29,1.49z" fill="#0087CC" id="svg_73"/>
   <path d="m124.93,58.15c1.8,1.17 2.5,2.84 2.09,4.9c-3.69,-0.44 -5.93,-3.87 -4.92,-5.91c0.92,0.32 1.86,0.64 2.84,1z" fill="#0087CC" id="svg_74"/>
   <path d="m12.02,32.27c-1.22,-1.89 -1.1,-4.52 0.21,-5.95c0.38,-0.42 0.62,-0.62 1.11,0c1.41,1.81 1.72,4.67 0.42,6.54c-0.52,0.75 -0.65,0.77 -1.25,0.08c-0.17,-0.19 -0.31,-0.41 -0.49,-0.67z" fill="#0087CC" id="svg_75"/>
   <path d="m11.78,52.61c-1.01,1.72 -1.87,2.19 -5.19,2.88c-0.63,-2.49 1.93,-5.5 5.82,-4.94c-0.21,0.69 -0.4,1.35 -0.63,2.06z" fill="#0087CC" id="svg_76"/>
   <path d="m125.81,52.59c0.5,0.93 0.81,1.84 0.62,2.86c-3.56,-0.12 -5.94,-2.44 -5.72,-4.94c2.06,-0.25 3.75,0.41 5.1,2.08z" fill="#0087CC" id="svg_77"/>
   <path d="m118.43,29.82c-0.05,-1.43 0.51,-2.55 1.29,-3.62c0.34,-0.46 0.59,-0.39 0.81,-0.02c0.43,0.72 1.01,1.44 1.15,2.22c0.32,1.76 -0.13,3.39 -1.43,4.71c-0.36,0.37 -0.58,0.47 -0.94,-0.08c-0.64,-0.97 -1,-1.98 -0.88,-3.21z" fill="#0087CC" id="svg_78"/>
   <path d="m17.81,26.81c-0.27,-0.04 -0.55,-0.02 -0.69,-0.15c-1.68,-1.68 -1.55,-5.16 0.23,-6.72c0.21,-0.18 0.47,-0.29 0.69,-0.43c1.57,1.9 1.81,5.33 -0.23,7.31z" fill="#0087CC" id="svg_79"/>
   <path d="m10.91,47.69c-0.97,0.16 -1.88,0.29 -2.81,0.41c-0.03,-2.62 2.08,-4.24 4.13,-4.41c0.34,-0.03 0.68,0 1.02,-0.01c1.28,-0.03 1.26,0.05 0.82,1.29c-0.51,1.46 -1.69,2.23 -3.16,2.71z" fill="#0087CC" id="svg_80"/>
   <path d="m113.7,23.77c-0.09,-1.34 0.11,-2.53 0.74,-3.66c0.35,-0.63 0.65,-0.61 1.12,-0.19c1.41,1.25 1.85,3.66 0.99,5.56c-0.05,0.12 -0.09,0.24 -0.17,0.35c-0.28,0.38 -0.57,0.76 -0.86,1.14c-0.39,-0.34 -0.9,-0.6 -1.13,-1.02c-0.34,-0.64 -0.48,-1.39 -0.7,-2.17z" fill="#0087CC" id="svg_81"/>
   <path d="m124.74,46.88c0.06,0.36 0.12,0.65 0.2,1.03c-1.63,0.28 -3.04,-0.08 -4.36,-0.9c-1.04,-0.65 -1.72,-1.56 -1.85,-2.79c-0.02,-0.16 0.21,-0.5 0.35,-0.51c1.85,-0.16 3.6,0.08 4.86,1.63c0.35,0.43 0.54,0.98 0.81,1.54z" fill="#0087CC" id="svg_82"/>
   <path d="m116.01,38.35c-0.12,-0.32 -0.19,-0.59 -0.27,-0.85c3.13,-1.22 6.55,0.49 6.59,3.26c-2.95,0.57 -4.99,-0.2 -6.33,-2.41z" fill="#0087CC" id="svg_83"/>
   <path d="m13.77,37.23c1.2,-0.3 2.31,-0.17 3.39,0.23c-0.5,2.59 -2.89,3.81 -6.52,3.33c-0.14,-1.41 1.04,-2.78 3.13,-3.56z" fill="#0087CC" id="svg_84"/>
   <path d="m22.02,20.38c-1.38,-2.71 -0.04,-5.82 2.06,-6.51c0.7,1.41 1,2.85 0.6,4.43c-0.23,0.94 -0.7,1.7 -1.41,2.35c-0.76,0.7 -0.78,0.72 -1.26,-0.26z" fill="#0087CC" id="svg_85"/>
   <path d="m110.87,15.63c1.04,1.81 0.72,3.51 -0.16,5.2c-0.2,0.37 -0.43,0.4 -0.74,0.12c-1.13,-1.01 -1.82,-2.19 -1.8,-3.78c0.02,-1.16 0.1,-2.26 0.75,-3.27c0.92,0.24 1.44,0.94 1.95,1.74z" fill="#0087CC" id="svg_86"/>
   <path d="m17.22,34.28c-1.32,0.19 -2.13,0.09 -3.23,-0.35c0.44,-2.73 3.94,-3.89 6.79,-2.45c-0.26,1.4 -1.85,2.65 -3.56,2.8z" fill="#0087CC" id="svg_87"/>
   <path d="m113.11,33.08c-0.39,-0.51 -0.73,-0.97 -1.09,-1.45c2.29,-1.41 6.16,-0.94 6.97,2.24c-1.65,0.95 -4.71,0.51 -5.88,-0.79z" fill="#0087CC" id="svg_88"/>
   <path d="m102.13,9.44c0.06,-0.18 0.09,-0.3 0.12,-0.43c3.02,1.07 3.66,3.93 2.73,6.54c-0.19,0.55 -0.59,0.44 -0.92,0.2c-1.27,-0.91 -2.09,-2.13 -2.16,-3.72c-0.04,-0.84 0.12,-1.7 0.23,-2.6z" fill="#0087CC" id="svg_89"/>
   <path d="m30.87,13.16c-0.54,1.57 -1.62,2.66 -2.68,2.75c-1.49,-2.78 -0.18,-6.08 2.48,-6.9c0.54,1.34 0.49,2.71 0.2,4.15z" fill="#0087CC" id="svg_90"/>
   <path d="m23.07,25.11c0.62,0.22 1.18,0.39 1.72,0.62c0.37,0.16 0.46,0.42 0.18,0.78c-1.18,1.54 -2.74,2.07 -4.61,1.73c-0.76,-0.14 -1.51,-0.36 -2.29,-0.55c1.02,-2.37 2.84,-2.78 5.01,-2.58z" fill="#0087CC" id="svg_91"/>
   <path d="m111.3,25.08c1.7,0.13 2.85,0.93 3.52,2.42c-2.2,1.48 -5.92,1.07 -7.06,-1.44c1.03,-0.78 2.2,-1.07 3.55,-0.98z" fill="#0087CC" id="svg_92"/>
   <path d="m95.03,7.75c-0.04,-0.93 -0.04,-1.8 -0.04,-2.7c2.29,0.35 3.54,2.06 3.72,4.11c0.05,0.58 -0.07,1.18 -0.15,1.77c-0.08,0.61 -0.4,0.68 -0.93,0.43c-1.51,-0.72 -2.25,-1.98 -2.59,-3.61z" fill="#0087CC" id="svg_93"/>
   <path d="m35.18,11.42c-0.29,-0.07 -0.69,-0.13 -0.74,-0.29c-0.74,-2.41 0.3,-5.38 3.26,-6.05c0.91,2 -0.15,5.47 -2.52,6.35z" fill="#0087CC" id="svg_94"/>
   <path d="m24.99,20.06c1.78,-0.74 3.33,-0.18 4.81,0.69c0.32,0.19 0.45,0.47 0.11,0.83c-0.76,0.81 -1.66,1.25 -2.78,1.29c-1.27,0.05 -2.46,-0.11 -3.58,-0.77c-0.46,-0.27 -0.49,-0.51 -0.13,-0.82c0.49,-0.42 1,-0.8 1.57,-1.22z" fill="#0087CC" id="svg_95"/>
   <path d="m103.33,21.88c-0.63,-0.48 -0.68,-0.82 0.04,-1.24c1.61,-0.95 3.23,-1.31 4.96,-0.38c0.25,0.13 0.47,0.32 0.67,0.51c1.07,1.04 1.08,1.13 -0.3,1.65c-1.83,0.69 -3.66,0.84 -5.37,-0.54z" fill="#0087CC" id="svg_96"/>
   <path d="m88.03,5.44c-0.24,-1.13 -0.46,-2.2 -0.7,-3.4c1.52,0.04 2.54,0.6 3.31,1.53c0.96,1.15 1.08,2.54 0.97,3.97c-0.02,0.31 -0.06,0.51 -0.53,0.4c-1.43,-0.34 -2.34,-1.25 -3.06,-2.51z" fill="#0087CC" id="svg_97"/>
   <path d="m41.89,4.23c0.78,-1.4 1.97,-2 3.44,-2.2c0.48,2.53 -0.88,5.45 -3.8,6.01c-0.45,-1.3 -0.2,-2.54 0.36,-3.81z" fill="#0087CC" id="svg_98"/>
   <path d="m29.37,15.96c2.03,-1.53 4.79,-0.89 6.4,0.86c-0.45,1.09 -2.39,1.73 -3.75,1.43c-0.91,-0.2 -1.75,-0.69 -2.61,-1.06c-0.77,-0.33 -0.66,-0.75 -0.04,-1.23z" fill="#0087CC" id="svg_99"/>
   <path d="m103.48,15.88c0.82,0.82 0.84,0.85 -0.11,1.43c-1.88,1.16 -3.97,1.41 -5.65,0.18c-0.23,-0.17 -0.45,-0.34 -0.67,-0.5c1.77,-2.02 4.62,-2.45 6.43,-1.1z" fill="#0087CC" id="svg_100"/>
   <path d="m80.54,0c2.2,0.26 4.12,2.55 3.61,5.29c-2.58,0.15 -4.68,-2.79 -4.43,-5.29c0.25,0 0.5,0 0.83,0z" fill="#0087CC" id="svg_101"/>
   <path d="m48.82,3.45c0.38,-2.1 2.42,-3.79 4.41,-3.37c0.18,2.42 -1.65,5.17 -4.45,5.26c0,-0.61 0,-1.22 0.04,-1.89z" fill="#0087CC" id="svg_102"/>
   <path d="m91.66,12.66c1.76,-1.9 4.58,-2.16 6.26,-0.38c-1.39,1.91 -4.52,2.72 -6.2,1.6c-0.76,-0.5 -0.76,-0.5 -0.06,-1.23z" fill="#0087CC" id="svg_103"/>
   <path d="m39.82,11.55c0.62,0.48 1.18,0.92 1.73,1.39c0.33,0.28 0.29,0.5 -0.09,0.79c-1.33,1.06 -3.82,0.71 -5.29,-0.36c-0.43,-0.31 -0.82,-0.68 -1.26,-1.06c1.53,-1.32 3.11,-1.58 4.91,-0.77z" fill="#0087CC" id="svg_104"/>
   <path d="m44.15,7.89c1.78,0.09 3.05,0.92 3.97,2.33c0.33,0.51 -0.06,0.68 -0.45,0.83c-1.72,0.7 -3.23,0.19 -4.61,-0.86c-0.48,-0.37 -0.89,-0.81 -1.39,-1.28c0.69,-0.79 1.54,-0.93 2.48,-1.02z" fill="#0087CC" id="svg_105"/>
   <path d="m85.81,11.21c-0.43,-0.17 -0.79,-0.32 -1.15,-0.47c0.95,-2.54 4.56,-3.85 6.47,-1.95c-1.28,1.94 -3.52,2.96 -5.32,2.43z" fill="#0087CC" id="svg_106"/>
   <path d="m78.48,7.53c1.13,-1.81 3.61,-2.67 5.51,-1.47c-0.67,1.77 -2.67,3.39 -5.1,3.1c-1.12,-0.13 -1.22,-0.46 -0.41,-1.63z" fill="#0087CC" id="svg_107"/>
   <path d="m54.4,7.42c0.2,0.49 0.39,0.92 0.58,1.35c-0.46,0.12 -0.91,0.34 -1.37,0.36c-2.28,0.11 -3.67,-1.19 -4.71,-3.04c1.89,-1.09 3.94,-0.67 5.5,1.33z" fill="#0087CC" id="svg_108"/>
   <path d="m87.21,121.75c0,0.54 0,1.01 0,1.53c-1.16,0 -2.27,0 -3.43,0c0,-1.11 0,-2.2 0,-3.35c1.09,0 2.2,0 3.43,0c0,0.57 0,1.16 0,1.82z" fill="#0087CC" id="svg_109"/>
   <path d="m49.18,123.13c-1.07,0.14 -2.12,0.2 -3.24,0.27c0,-1.21 0,-2.32 0,-3.48c1.05,0 2.11,0 3.25,0c0,1.06 0,2.1 -0.01,3.21z" fill="#0087CC" id="svg_110"/>
   <path d="m81,140.53c0.71,0 1.35,0 1.99,0c0.02,0.06 0.05,0.13 0.07,0.19c-1.06,0.47 -1.49,2.02 -3.27,1.6c0.41,-0.64 0.78,-1.22 1.21,-1.8z" fill="#0087CC" id="svg_111"/>
   <path d="m64.41,113.86c1.26,-0.03 2.59,-0.06 3.97,-0.05c-1.26,0.04 -2.58,0.05 -3.97,0.05z" fill="#CB9E51" id="svg_112"/>
   <path d="m20.19,65.08c-0.03,-5.75 0.79,-11.35 2.81,-16.75c4.2,-11.25 11.62,-19.69 22.23,-25.29c6.2,-3.27 12.84,-4.91 19.85,-5.16c19.98,-0.7 38.49,11.99 45.05,30.9c1.82,5.23 2.69,10.61 2.58,16.28c-0.22,2.27 -0.41,4.4 -0.69,6.53c-7.5,-0.01 -14.93,-0.02 -22.32,-0.07c6.53,-2.49 13.02,-4.93 19.52,-7.37c-0.01,-0.05 -0.03,-0.1 -0.04,-0.16c-7.31,0.13 -14.61,0.26 -21.92,0.4c-0.01,-0.06 -0.03,-0.12 -0.04,-0.18c3.32,-2.92 6.65,-5.85 9.97,-8.77c-0.03,-0.05 -0.06,-0.09 -0.08,-0.14c-4.75,1.22 -9.5,2.44 -14.38,3.69c4.51,-6.29 8.95,-12.46 13.38,-18.64c-0.05,-0.05 -0.11,-0.09 -0.16,-0.14c-6.18,4.95 -12.37,9.9 -18.72,14.98c0.41,-4.78 0.8,-9.34 1.19,-13.91c-0.05,-0.01 -0.11,-0.02 -0.16,-0.04c-2.65,3.79 -5.31,7.59 -8.02,11.47c-0.19,-1.6 -0.37,-3.03 -0.53,-4.47c-0.49,-4.4 -0.97,-8.81 -1.47,-13.21c-0.51,-4.53 -1.05,-9.06 -1.56,-13.66c-0.03,-0.28 -0.07,-0.5 -0.11,-0.72c-0.06,0.01 -0.13,0.02 -0.19,0.03c-1.21,10.63 -2.41,21.27 -3.64,32.09c-2.77,-3.96 -5.4,-7.73 -8.04,-11.5c-0.05,0.02 -0.1,0.03 -0.15,0.05c0.39,4.56 0.78,9.13 1.19,13.9c-6.4,-5.12 -12.61,-10.09 -18.82,-15.07c-0.03,0.04 -0.07,0.07 -0.1,0.11c4.45,6.19 8.9,12.39 13.47,18.74c-4.94,-1.27 -9.68,-2.48 -14.41,-3.69c-0.02,0.04 -0.05,0.08 -0.07,0.11c3.33,2.93 6.67,5.86 10,8.79c-0.02,0.06 -0.05,0.11 -0.07,0.17c-7.29,-0.13 -14.59,-0.27 -21.88,-0.4c0.12,0.19 0.26,0.25 0.39,0.31c3.92,1.47 7.84,2.94 11.76,4.42c2.47,0.93 4.93,1.89 7.32,2.84c-7.16,0 -14.24,0 -21.32,0.01c-0.35,0 -0.7,0.12 -1.09,0.13c-0.17,-1.17 -0.32,-2.28 -0.43,-3.39c-0.11,-1.09 -0.19,-2.18 -0.28,-3.27z" fill="#0187CC" id="svg_113"/>
   <path d="m20.18,65.16c0.1,1.01 0.18,2.11 0.29,3.2c0.11,1.11 0.26,2.22 0.43,3.46c0.16,0.84 0.25,1.57 0.41,2.28c2.38,10.29 7.56,18.89 15.7,25.64c8.43,7 18.2,10.44 29.12,10.65c3.52,0.07 7.02,-0.3 10.44,-1.12c13.77,-3.33 24.09,-11.21 30.84,-23.69c2.37,-4.38 3.87,-9.06 4.68,-13.97c0.2,-2.13 0.4,-4.26 0.62,-6.46c0.15,4.75 -0.47,9.46 -1.85,14.07c-1.73,5.84 -4.51,11.14 -8.33,15.88c-3.92,4.86 -8.64,8.76 -14.15,11.74c-4.55,2.46 -9.39,4.1 -14.47,4.93c-3.66,0.6 -7.35,0.68 -11.06,0.41c-5.95,-0.42 -11.58,-1.98 -16.91,-4.61c-3.71,-1.83 -7.11,-4.15 -10.22,-6.9c-3.63,-3.21 -6.66,-6.91 -9.13,-11.07c-3.14,-5.31 -5.2,-11.01 -5.95,-17.14c-0.29,-2.39 -0.33,-4.81 -0.48,-7.29z" fill="#F4B53D" id="svg_114"/>
   <path d="m112.03,71.61c-0.73,4.91 -2.24,9.59 -4.61,13.97c-6.76,12.48 -17.07,20.36 -30.84,23.69c-3.42,0.83 -6.93,1.19 -10.44,1.12c-10.91,-0.21 -20.69,-3.65 -29.12,-10.65c-8.14,-6.75 -13.32,-15.35 -15.7,-25.64c-0.17,-0.71 -0.26,-1.44 -0.38,-2.23c0.35,-0.13 0.7,-0.25 1.06,-0.25c7.08,-0.01 14.17,-0.01 21.4,-0.01c0.25,0.01 0.36,0.03 0.46,0.03c7.58,0 15.16,-0.01 22.8,0c7.43,0.02 14.8,0.03 22.16,0.02c0.29,0 0.57,-0.05 0.86,-0.08c7.43,0.01 14.86,0.02 22.36,0.02m-46.81,26.88c0,-0.72 0,-1.45 0,-2.23c-0.68,0 -1.22,0 -1.79,0c0,-2.12 0,-4.18 0,-6.22c2.07,0 4.09,0 6.13,0c0,2.08 0,4.12 0,6.19c-0.61,0.03 -1.17,0.05 -1.75,0.08c0,1.33 0,2.58 0,3.87c3.54,0 7.04,0 10.56,0c0,-1.32 0,-2.57 0,-3.9c-0.94,0 -1.85,0 -2.79,0c0,-5.14 0,-10.2 0,-15.34c0.94,0 1.85,0 2.78,0c0,-1.35 0,-2.62 0,-3.91c-3.54,0 -7.02,0 -10.53,0c0,1.32 0,2.58 0,3.95c0.61,0 1.17,0 1.73,0c0,1.71 0,3.32 0,4.93c-2.09,0 -4.12,0 -6.13,0c0,-1.68 0,-3.29 0,-5c0.61,0 1.17,0 1.72,0c0,-1.36 0,-2.63 0,-3.89c-3.56,0 -7.05,0 -10.57,0c0,1.31 0,2.58 0,3.93c0.95,0 1.86,0 2.8,0c0,5.13 0,10.19 0,15.33c-0.95,0 -1.86,0 -2.79,0c0,1.35 0,2.62 0,3.9c3.56,0 7.07,0 10.64,0c0,-0.55 0,-1.05 0,-1.7z" fill="#016FB8" id="svg_125"/>
   <path d="m66.58,71.62c-7.58,0 -15.16,0.01 -22.73,0.01c-0.1,0 -0.21,-0.02 -0.38,-0.03c-2.54,-0.95 -5,-1.9 -7.47,-2.84c-3.92,-1.48 -7.84,-2.95 -11.76,-4.42c-0.14,-0.05 -0.27,-0.12 -0.39,-0.31c7.3,0.13 14.59,0.27 21.88,0.4c0.02,-0.06 0.05,-0.11 0.07,-0.17c-3.33,-2.93 -6.67,-5.86 -10,-8.79c0.02,-0.04 0.05,-0.08 0.07,-0.11c4.73,1.21 9.47,2.43 14.41,3.69c-4.57,-6.36 -9.02,-12.55 -13.47,-18.74c0.03,-0.04 0.07,-0.07 0.1,-0.11c6.21,4.97 12.42,9.94 18.82,15.07c-0.41,-4.77 -0.8,-9.34 -1.19,-13.9c0.05,-0.02 0.1,-0.03 0.15,-0.05c2.64,3.77 5.27,7.55 8.04,11.5c1.23,-10.82 2.44,-21.46 3.64,-32.09c0.06,-0.01 0.13,-0.02 0.19,-0.03c0.04,0.22 0.08,0.44 0.09,0.77c-0.06,0.46 -0.11,0.79 -0.11,1.13c0,16 0,32 0,48c0,0.34 0.03,0.68 0.04,1.02z" fill="#F5B63D" id="svg_126"/>
   <path d="m66.65,71.64c-0.08,-0.36 -0.11,-0.7 -0.11,-1.04c0,-16 0,-32 0,-48c0,-0.34 0.04,-0.68 0.1,-1.07c0.55,4.48 1.09,9.01 1.6,13.54c0.5,4.4 0.97,8.81 1.47,13.21c0.16,1.43 0.34,2.86 0.53,4.47c2.72,-3.88 5.37,-7.68 8.02,-11.47c0.05,0.01 0.11,0.03 0.16,0.04c-0.39,4.57 -0.78,9.13 -1.19,13.91c6.35,-5.08 12.53,-10.03 18.72,-14.98c0.05,0.05 0.11,0.09 0.16,0.14c-4.44,6.18 -8.87,12.35 -13.38,18.64c4.88,-1.25 9.63,-2.47 14.38,-3.69c0.03,0.04 0.06,0.09 0.08,0.14c-3.32,2.92 -6.65,5.84 -9.97,8.77c0.02,0.06 0.03,0.12 0.04,0.18c7.31,-0.13 14.61,-0.26 21.92,-0.4c0.01,0.05 0.03,0.1 0.04,0.16c-6.49,2.44 -12.99,4.88 -19.52,7.37c-0.32,0.07 -0.61,0.12 -0.89,0.12c-7.36,0 -14.73,0 -22.16,-0.02z" fill="#F3A702" id="svg_127"/>
   <path d="m65.22,98.57c0,0.57 0,1.07 0,1.62c-3.57,0 -7.08,0 -10.64,0c0,-1.28 0,-2.55 0,-3.9c0.93,0 1.84,0 2.79,0c0,-5.14 0,-10.19 0,-15.33c-0.94,0 -1.84,0 -2.8,0c0,-1.35 0,-2.61 0,-3.93c3.52,0 7.01,0 10.57,0c0,1.26 0,2.53 0,3.89c-0.55,0 -1.11,0 -1.72,0c0,1.71 0,3.32 0,5c2.01,0 4.04,0 6.13,0c0,-1.61 0,-3.23 0,-4.93c-0.56,0 -1.12,0 -1.73,0c0,-1.36 0,-2.63 0,-3.95c3.51,0 6.99,0 10.53,0c0,1.29 0,2.56 0,3.91c-0.93,0 -1.83,0 -2.78,0c0,5.14 0,10.2 0,15.34c0.94,0 1.85,0 2.79,0c0,1.34 0,2.59 0,3.9c-3.52,0 -7.02,0 -10.56,0c0,-1.28 0,-2.54 0,-3.87c0.58,-0.03 1.14,-0.05 1.75,-0.08c0,-2.08 0,-4.11 0,-6.19c-2.04,0 -4.05,0 -6.13,0c0,2.04 0,4.1 0,6.22c0.57,0 1.11,0 1.79,0c0,0.78 0,1.5 0,2.3z" fill="#FBFCFE" id="svg_128"/>
  </g>
 </g>
</svg>